# AST/ASF file generated using VICON BodyLanguage
# -----------------------------------------------
:version 1.10
:name VICON
:units
  mass 1.0
  length 0.45
  angle deg
:documentation
   .ast/.asf automatically generated from VICON data using
   VICON BodyBuilder and BodyLanguage model FoxedUp or BRILLIANT.MOD
:root
   order TX TY TZ RX RY RZ
   axis XYZ
   position 0 0 0  
   orientation 0 0 0 
:bonedata
  begin
     id 1 
     name lhipjoint
     direction 0.535335 -0.74333 0.401095 
     length 2.04549 
     axis 0 0 0  XYZ
  end
  begin
     id 2 
     name lfemur
     direction 0.34202 -0.939693 0  
     length 6.95643  
     axis 0 0 20  XYZ
    dof rx ry rz
    limits (-160.0 20.0)
           (-70.0 70.0)
           (-60.0 70.0)
  end
  begin
     id 3 
     name ltibia
     direction 0.34192 -0.939729 0   
     length 5.55969   
     axis 0 0 20   XYZ
    dof rx
    limits (-10.0 170.0)
  end
  begin
     id 4 
     name lfoot
     direction 0.216943 -0.596046 0.773088   
     length 2.27918   
     axis -90 7.62852e-016 20   XYZ
    dof rx rz
    limits (-45.0 90.0)
           (-70.0 20.0)
  end
  begin
     id 5 
     name ltoes
     direction 1.53519e-011 -4.21748e-011 1   
     length 1.05562   
     axis -90 7.62852e-016 20   XYZ
    dof rx
    limits (-90.0 20.0)
  end
  begin
     id 6 
     name rhipjoint
     direction -0.576368 -0.719173 0.38806   
     length 2.1142  
     axis 0 0 0  XYZ 
  end
  begin
     id 7 
     name rfemur
     direction -0.34202 -0.939693 0   
     length 7.07928   
     axis 0 0 -20   XYZ
    dof rx ry rz
    limits (-160.0 20.0)
           (-70.0 70.0)
           (-70.0 60.0)
  end
  begin
     id 8 
     name rtibia
     direction -0.34202 -0.939693 0   
     length 5.79974   
     axis 0 0 -20   XYZ
    dof rx
    limits (-10.0 170.0)
 end
 begin
     id 9 
     name rfoot
     direction -0.189288 -0.520065 0.832888   
     length 2.42173  
     axis -90 -7.62852e-016 -20   XYZ
    dof rx rz
    limits (-45.0 90.0)
           (-20.0 70.0)
  end
  begin
     id 10 
     name rtoes
     direction -1.53574e-011 -4.21658e-011 1   
     length 1.14469   
     axis -90 -7.62852e-016 -20   XYZ
    dof rx
    limits (-90.0 20.0)
  end
  begin
     id 11 
     name lowerback
     direction -0.00135702 0.993803 0.111144   
     length 1.91308   
     axis 0 0 0   XYZ
    dof rx ry rz
    limits (-20.0 45.0)
           (-30.0 30.0)
           (-30.0 30.0)
  end
  begin
     id 12 
     name upperback
     direction -0.0056745 0.999813 0.0184631   
     length 1.9212   
     axis 0 0 0   XYZ
    dof rx ry rz
    limits (-20.0 45.0)
           (-30.0 30.0)
           (-30.0 30.0)
  end
  begin
     id 13 
     name thorax
     direction -0.00733434 0.999426 -0.0330788   
     length 1.94196   
     axis 0 0 0   XYZ
    dof rx ry rz
    limits (-20.0 45.0)
           (-30.0 30.0)
           (-30.0 30.0)
  end
  begin
     id 14 
     name lowerneck
     direction 0.0563074 0.996944 -0.0541571   
     length 2.34257   
     axis 0 0 0   XYZ
    dof rx ry rz
    limits (-20.0 45.0)
           (-30.0 30.0)
           (-30.0 30.0)
  end
  begin
     id 15 
     name upperneck
     direction -0.0544519 0.976166 -0.210085   
     length 2.32506   
     axis 0 0 0   XYZ
    dof rx ry rz
    limits (-20.0 45.0)
           (-30.0 30.0)
           (-30.0 30.0)
  end
  begin
     id 16
     name head
     direction -0.0226035 0.997615 -0.0652205  
     length 2.3648  
     axis 0 0 0   XYZ
    dof rx ry rz
    limits (-20.0 45.0)
           (-30.0 30.0)
           (-30.0 30.0)
  end
  begin
     id 17 
     name lclavicle
     direction 0.92109 0.381297 -0.0787716  
     length 4.0487  
     axis 0 0 0   XYZ
    dof ry rz
    limits (-20.0 10.0)
           (0.0 20.0)
  end
  begin
     id 18 
     name lhumerus
     direction 1 -4.48986e-011 3.56724e-027   
     length 4.94991   
     axis 180 -30 -90   XYZ
    dof rx ry rz
    limits (-60.0 90.0)
           (-90.0 90.0)
           (-90.0 90.0)
  end
  begin
     id 19
     name lradius
     direction 1 -4.48981e-011 8.62147e-027   
     length 2.7606   
     axis 180 -30 -90   XYZ
    dof rx
    limits (-10.0 170.0)
  end
  begin
     id 20
     name lwrist
     direction 1 -4.48989e-011 1.59799e-026   
     length 1.3803   
     axis -1.17785e-014 90 90   XYZ
    dof ry
    limits (-180.0 0.0)
 end
  begin
     id 21 
     name lhand
     direction 1 -4.48896e-011 3.19599e-026   
     length 0.843936   
     axis -2.03931e-014 90 90   XYZ
    dof rx rz
    limits (-90.0 90.0)
           (-45.0 45.0)
  end
  begin
     id 22 
     name lfingers
     direction 1 -4.48887e-011 6.39197e-026   
     length 0.680403   
     axis -4.07862e-014 90 90   XYZ
    dof rx
    limits (0.0 90.0)
  end
  begin
     id 23
     name lthumb
     direction 0.707107 -6.348e-011 0.707107   
     length 0.976926   
     axis -90 45 2.85299e-015   XYZ
    dof rx rz
    limits (-45.0 45.0)
           (-45.0 45.0)
  end
  begin
     id 24 
     name rclavicle
     direction -0.951104 0.307692 -0.026953   
     length 4.21801  
     axis 0 0 0   XYZ 
    dof ry rz
    limits (-10.0 20.0)
           (-20.0 0.0)
  end
  begin
     id 25 
     name rhumerus
     direction -1 -4.4896e-011 -1.8171e-018  
     length 4.32982   
     axis 180 30 90   XYZ
    dof rx ry rz
    limits (-90.0 60.0)
           (-90.0 90.0)
           (-90.0 90.0)
  end
  begin
     id 26 
     name rradius
     direction -1 -4.48959e-011 8.25165e-027   
     length 3.20057   
     axis 180 30 90   XYZ
    dof rx
    limits (-10.0 170.0)
  end
  begin
     id 27 
     name rwrist
     direction -1 -4.48997e-011 1.59799e-026   
     length 1.60029   
     axis -1.17785e-014 -90 -90   XYZ
    dof ry
    limits (-180.0 0.0)
  end
  begin
     id 28
     name rhand
     direction -1 -4.49023e-011 3.19599e-026   
     length 0.960433   
     axis -2.03931e-014 -90 -90   XYZ
    dof rx rz
    limits (-90.0 90.0)
           (-45.0 45.0)
  end
  begin
     id 29
     name rfingers
     direction -1 -4.48802e-011 6.39197e-026   
     length 0.774326   
     axis -4.07862e-014 -90 -90   XYZ
    dof rx
    limits (0.0 90.0)
  end
  begin
     id 30
     name rthumb
     direction -0.707107 -6.34876e-011 0.707107   
     length 1.11178   
     axis -90 -45 -2.85299e-015   XYZ
    dof rx rz
    limits (-45.0 45.0)
           (-45.0 45.0)
  end
:hierarchy
  begin
    root lhipjoint rhipjoint lowerback
    lhipjoint lfemur
    lfemur ltibia
    ltibia lfoot
    lfoot ltoes
    rhipjoint rfemur
    rfemur rtibia
    rtibia rfoot
    rfoot rtoes
    lowerback upperback
    upperback thorax
    thorax lowerneck lclavicle rclavicle
    lowerneck upperneck
    upperneck head
    lclavicle lhumerus
    lhumerus lradius
    lradius lwrist
    lwrist lhand lthumb
    lhand lfingers
    rclavicle rhumerus
    rhumerus rradius
    rradius rwrist
    rwrist rhand rthumb
    rhand rfingers
end

#!OML:ASF C:\KaitlinTest1\Natural Motions\Nikki\Session 2\Nikki.ASF
:FULLY-SPECIFIED
:DEGREES
402
root 1.06506 16.5685 5.66682 -162.96 83.5503 -175.089
lowerback -11.1984 -3.53959 1.51032
upperback -3.04583 -4.7814 0.73212
thorax 3.01848 -2.3218 -0.729741
lowerneck 15.4817 -4.9783 -17.9644
upperneck 14.764 47.319 9.8627
head 174.148 61.2199 -30.0084
rclavicle -1.28127e-014 3.80176e-015
rhumerus -36.0479 0.100255 -94.3437
rradius 28.6253
rwrist 8.99656
rhand -38.1932 5.94162
rfingers 7.12502
rthumb -11.2256 -23.738
lclavicle -1.28127e-014 3.80176e-015
lhumerus -32.6527 3.53259 93.1659
lradius 33.3532
lwrist -22.671
lhand -38.4394 2.62747
lfingers 7.12502
lthumb -11.4631 32.2941
rfemur -18.9658 -19.9645 23.8123
rtibia 26.8382
rfoot -17.0946 14.6766
rtoes 4.77083e-015
lfemur -21.9207 18.0775 -19.7066
ltibia 27.1758
lfoot -9.51017 -23.4577
ltoes -6.04305e-014
403
root 1.0515 16.5682 5.66289 -162.411 83.4727 -174.551
lowerback -11.0849 -3.55423 1.53673
upperback -2.98007 -4.80784 0.770277
thorax 3.02541 -2.33604 -0.703658
lowerneck 15.5077 -4.9671 -17.9731
upperneck 14.8004 47.375 9.89339
head 174.171 61.1354 -29.9912
rclavicle 3.77784e-014 -3.37934e-015
rhumerus -36.0742 -0.410647 -93.9832
rradius 28.2103
rwrist 9.68564
rhand -38.2885 5.96402
rfingers 7.12502
rthumb -11.3175 -23.7106
lclavicle 3.77784e-014 -3.37934e-015
lhumerus -32.618 3.51021 93.2269
lradius 33.0609
lwrist -22.8532
lhand -38.5038 2.64702
lfingers 7.12502
lthumb -11.5252 32.3102
rfemur -19.0249 -19.9086 23.8977
rtibia 26.8276
rfoot -17.0495 14.5268
rtoes 5.32743e-014
lfemur -22.0094 18.1823 -19.6917
ltibia 27.1676
lfoot -9.46268 -23.623
ltoes 1.90833e-014
404
root 1.03669 16.5708 5.65392 -163.015 83.4477 -175.237
lowerback -11.0137 -3.57004 1.50825
upperback -2.94243 -4.82645 0.744791
thorax 3.02536 -2.34634 -0.713378
lowerneck 15.5339 -4.97249 -17.9681
upperneck 14.7953 47.3402 9.87022
head 174.061 61.2038 -30.0521
rclavicle 1.13913e-015 -9.69075e-016
rhumerus -36.0778 -0.772652 -93.7453
rradius 27.7805
rwrist 9.78397
rhand -38.4041 5.78253
rfingers 7.12502
rthumb -11.429 -23.886
lclavicle 1.13913e-015 -9.69075e-016
lhumerus -32.5911 3.5648 93.226
lradius 32.7692
lwrist -23.0372
lhand -38.4705 2.68382
lfingers 7.12502
lthumb -11.493 32.3488
rfemur -19.1562 -19.9498 23.8238
rtibia 26.8022
rfoot -17.314 14.6693
rtoes -2.22639e-014
lfemur -22.1806 18.2798 -19.8871
ltibia 27.1809
lfoot -9.37956 -23.7774
ltoes 7.79236e-014
405
root 1.02303 16.5721 5.64753 -163.312 83.4056 -175.569
lowerback -10.9501 -3.58918 1.46213
upperback -2.85463 -4.85096 0.735691
thorax 3.08452 -2.35942 -0.699859
lowerneck 15.5135 -4.97416 -17.948
upperneck 14.8129 47.3858 9.89563
head 174.074 61.1414 -30.0532
rclavicle -4.52732e-014 2.65874e-015
rhumerus -36.0635 -1.11766 -93.5201
rradius 27.4189
rwrist 9.7429
rhand -38.4445 5.45814
rfingers 7.12502
rthumb -11.4679 -24.2082
lclavicle -4.52732e-014 2.65874e-015
lhumerus -32.4928 3.56297 93.2257
lradius 32.4934
lwrist -23.0551
lhand -38.3927 3.01163
lfingers 7.12502
lthumb -11.4181 32.6807
rfemur -19.2303 -20.0534 23.831
rtibia 26.7661
rfoot -17.3631 14.6354
rtoes -8.18993e-014
lfemur -22.311 18.3927 -20.0102
ltibia 27.2032
lfoot -9.36089 -23.9682
ltoes -4.29375e-014
406
root 1.00744 16.5739 5.64095 -162.902 83.3559 -175.169
lowerback -10.8177 -3.59851 1.5172
upperback -2.79334 -4.872 0.747906
thorax 3.07174 -2.37111 -0.714054
lowerneck 15.5015 -4.94018 -17.9535
upperneck 14.9367 47.6386 10.0396
head 174.264 60.8529 -29.9704
rclavicle 2.9813e-014 2.20278e-014
rhumerus -36.1026 -1.80182 -93.083
rradius 27.0265
rwrist 10.2162
rhand -38.4576 5.36168
rfingers 7.12502
rthumb -11.4806 -24.304
lclavicle 2.9813e-014 2.20278e-014
lhumerus -32.4268 3.70842 93.1546
lradius 32.1066
lwrist -23.2658
lhand -38.2456 2.83881
lfingers 7.12502
lthumb -11.2761 32.5157
rfemur -19.2841 -19.9291 23.8784
rtibia 26.7243
rfoot -17.3162 14.4716
rtoes 2.54444e-014
lfemur -22.4362 18.5165 -20.037
ltibia 27.2268
lfoot -9.30166 -24.1417
ltoes 1.74931e-014
407
root 0.991167 16.5756 5.63619 -162.581 83.3164 -174.835
lowerback -10.6555 -3.61369 1.51814
upperback -2.71703 -4.896 0.778958
thorax 3.06435 -2.38475 -0.677821
lowerneck 15.5081 -4.9529 -17.9539
upperneck 14.9286 47.6166 10.0058
head 174.122 60.8486 -30.0442
rclavicle 1.38916e-014 9.69075e-016
rhumerus -36.0798 -2.35679 -92.6483
rradius 26.5547
rwrist 10.7156
rhand -38.4833 5.42268
rfingers 7.12502
rthumb -11.5054 -24.2416
lclavicle 1.38916e-014 9.69075e-016
lhumerus -32.4378 3.71043 93.1452
lradius 31.7168
lwrist -23.433
lhand -38.4386 3.00093
lfingers 7.12502
lthumb -11.4622 32.6676
rfemur -19.3123 -19.8431 23.9164
rtibia 26.6833
rfoot -17.2214 14.3388
rtoes 6.12257e-014
lfemur -22.5548 18.6884 -20.0686
ltibia 27.2585
lfoot -9.20061 -24.3375
ltoes -1.59028e-015
408
root 0.978064 16.5758 5.63024 -162.031 83.2863 -174.301
lowerback -10.5557 -3.62417 1.58289
upperback -2.65144 -4.91995 0.795063
thorax 3.07325 -2.39736 -0.69603
lowerneck 15.508 -4.93391 -17.9632
upperneck 14.9601 47.6771 10.0325
head 174.124 60.8202 -30.051
rclavicle -1.17186e-013 -1.61637e-014
rhumerus -36.0618 -3.02874 -92.2065
rradius 26.0374
rwrist 11.1363
rhand -38.4674 5.50089
rfingers 7.12502
rthumb -11.49 -24.1642
lclavicle -1.17186e-013 -1.61637e-014
lhumerus -32.4803 3.73728 93.1494
lradius 31.3489
lwrist -22.9425
lhand -38.6437 2.61064
lfingers 7.12502
lthumb -11.6601 32.2662
rfemur -19.3836 -19.8925 23.9913
rtibia 26.6474
rfoot -17.1445 14.3849
rtoes -2.29e-013
lfemur -22.6625 18.7784 -20.0685
ltibia 27.2993
lfoot -9.18377 -24.4763
ltoes -1.09729e-013
